<svg width="512" height="512" viewBox="0 0 512 512" xmlns="http://www.w3.org/2000/svg">
  <defs>
    <linearGradient id="waveGradient" x1="0%" y1="0%" x2="100%" y2="100%">
      <stop offset="0%" style="stop-color:#4f46e5;stop-opacity:1" />
      <stop offset="100%" style="stop-color:#7c3aed;stop-opacity:1" />
    </linearGradient>
    <linearGradient id="circleGradient" x1="0%" y1="0%" x2="100%" y2="100%">
      <stop offset="0%" style="stop-color:#6366f1;stop-opacity:1" />
      <stop offset="100%" style="stop-color:#8b5cf6;stop-opacity:1" />
    </linearGradient>
  </defs>
  
  <!-- Background circle -->
  <circle cx="256" cy="256" r="240" fill="url(#circleGradient)" opacity="0.1"/>
  
  <!-- Speech wave visualization -->
  <g transform="translate(256, 256)">
    <!-- Center bar -->
    <rect x="-12" y="-80" width="24" height="160" rx="12" fill="url(#waveGradient)"/>
    
    <!-- Wave bars with varying heights -->
    <rect x="-72" y="-50" width="20" height="100" rx="10" fill="url(#waveGradient)" opacity="0.8"/>
    <rect x="-42" y="-65" width="20" height="130" rx="10" fill="url(#waveGradient)" opacity="0.9"/>
    
    <rect x="22" y="-65" width="20" height="130" rx="10" fill="url(#waveGradient)" opacity="0.9"/>
    <rect x="52" y="-50" width="20" height="100" rx="10" fill="url(#waveGradient)" opacity="0.8"/>
    
    <!-- Outer bars -->
    <rect x="-102" y="-30" width="20" height="60" rx="10" fill="url(#waveGradient)" opacity="0.6"/>
    <rect x="82" y="-30" width="20" height="60" rx="10" fill="url(#waveGradient)" opacity="0.6"/>
    
    <!-- Far outer bars -->
    <rect x="-132" y="-20" width="20" height="40" rx="10" fill="url(#waveGradient)" opacity="0.4"/>
    <rect x="112" y="-20" width="20" height="40" rx="10" fill="url(#waveGradient)" opacity="0.4"/>
    
    <!-- Outermost bars -->
    <rect x="-162" y="-10" width="20" height="20" rx="10" fill="url(#waveGradient)" opacity="0.3"/>
    <rect x="142" y="-10" width="20" height="20" rx="10" fill="url(#waveGradient)" opacity="0.3"/>
  </g>
  
  <!-- Outer ring -->
  <circle cx="256" cy="256" r="240" fill="none" stroke="url(#waveGradient)" stroke-width="4" opacity="0.3"/>
</svg>